inDegrees=no
num_controls=7
num_derivatives=13
num_iterations=266
num_multipliers=7
num_parameters=0
num_slacks=7
num_states=26
objective=5.954137
objective_accelerations=0.733660
objective_balance=0.129113
objective_effort=0.478855
objective_height=4.516524
objective_ligament=0.095985
solver_duration=3038.107511
status=Solve_Succeeded
success=true
DataType=double
version=3
OpenSimVersion=4.4-2022-07-23-0e9fedc
endheader
time	/jointset/ground_pelvis/pelvis_tilt/value	/jointset/ground_pelvis/pelvis_tx/value	/jointset/ground_pelvis/pelvis_ty/value	/jointset/hip_l/hip_flexion_l/value	/jointset/hip_l/hip_adduction_l/value	/jointset/hip_l/hip_rotation_l/value	/jointset/back/lumbar_extension/value	/jointset/patellofemoral_l/patellar_flexion_l/value	/jointset/knee_l/knee_flexion_l/value	/jointset/knee_l/knee_adduction_l/value	/jointset/knee_l/knee_rotation_l/value	/jointset/ankle_l/ankle_angle_l/value	/jointset/subtalar_l/subtalar_angle_l/value	/jointset/ground_pelvis/pelvis_tilt/speed	/jointset/ground_pelvis/pelvis_tx/speed	/jointset/ground_pelvis/pelvis_ty/speed	/jointset/hip_l/hip_flexion_l/speed	/jointset/hip_l/hip_adduction_l/speed	/jointset/hip_l/hip_rotation_l/speed	/jointset/back/lumbar_extension/speed	/jointset/patellofemoral_l/patellar_flexion_l/speed	/jointset/knee_l/knee_flexion_l/speed	/jointset/knee_l/knee_adduction_l/speed	/jointset/knee_l/knee_rotation_l/speed	/jointset/ankle_l/ankle_angle_l/speed	/jointset/subtalar_l/subtalar_angle_l/speed	/forceset/tau_hip_flexion_l	/forceset/tau_hip_adduction_l	/forceset/tau_hip_rotation_l	/forceset/tau_knee_flexion_l	/forceset/tau_ankle_angle_l	/forceset/tau_subtalar_angle_l	/forceset/tau_lumbar_extension	lambda_cid13_p0	lambda_cid13_p1	lambda_cid13_p2	lambda_cid13_p3	lambda_cid13_p4	lambda_cid13_p5	lambda_cid14_p0	/jointset/ground_pelvis/pelvis_tilt/accel	/jointset/ground_pelvis/pelvis_tx/accel	/jointset/ground_pelvis/pelvis_ty/accel	/jointset/hip_l/hip_flexion_l/accel	/jointset/hip_l/hip_adduction_l/accel	/jointset/hip_l/hip_rotation_l/accel	/jointset/back/lumbar_extension/accel	/jointset/patellofemoral_l/patellar_flexion_l/accel	/jointset/knee_l/knee_flexion_l/accel	/jointset/knee_l/knee_adduction_l/accel	/jointset/knee_l/knee_rotation_l/accel	/jointset/ankle_l/ankle_angle_l/accel	/jointset/subtalar_l/subtalar_angle_l/accel	gamma_cid13_p0	gamma_cid13_p1	gamma_cid13_p2	gamma_cid13_p3	gamma_cid13_p4	gamma_cid13_p5	gamma_cid14_p0
0.5	-0.4837259368300912	-0.07381370598594472	0.749914033597733	1.33736827592583	-0.3090177107260813	-0.02929892017937807	-0.3366046825283268	0.738399790505794	0.7383997905057985	-0.1707793555148812	0.17425024692466	0.05451110055217998	-0.04539696979537093	-0.839002729942809	-0.2623462572008082	-0.5488086890437821	2.573892384067595	-0.01995421400644715	0.6681394710651226	-0.617345847512746	1.907706214845505	1.907706214845426	-0.01058829892053345	0.0001922988534956393	0.2776306354443687	0.01237145936454642	-0.2665090006219818	0.02157454271862606	-0.02004630227885504	-0.1910798184859217	0.1180631522516573	0.04480223964278564	0.2333318139042253	-0.4388502281198838	-21.89090105683308	5.95475915431967	-4.460397469296574	-605.7129672378142	-56.52286747684519	-25.40318785742322	0.7116300629369002	0.7517639508737606	-0.3461329952032565	-1.666675749294327	0.6588545001733082	-0.3211258144078752	1.916347458827907	-1.210388734342565	-1.210388734342576	-0.001341450286576872	-0.001516271529453242	-0.2136311225644169	0.6388302760812122	-3.497909276972073e-07	-9.207755499376553e-07	1.726882789073869e-06	1.088463967266904e-07	-4.442727889471997e-07	8.805425886661123e-08	-3.799051071302744e-07
0.51	-0.4920785589412027	-0.07639930137119284	0.7444098308230341	1.363019296590549	-0.3091859238560576	-0.02263371444621247	-0.3426825119247715	0.7574132569395809	0.7574132569395953	-0.170888388364788	0.1742527271699363	0.05727562263215942	-0.0452430968211281	-0.8314135244407675	-0.2547541478253759	-0.5519174036528481	2.555977203400735	-0.01370484259040971	0.6648134319137573	-0.5981584065924049	1.894728175469546	1.894728175469593	-0.01120508820828268	0.0003083481788923805	0.2752143333396107	0.01838526554722757	-0.2755588895624303	0.02210363620208994	-0.02006878060340331	-0.192148648699363	0.1172114725093146	0.04517697527438432	0.2401964895370012	-0.9947599516020575	-21.84940417525119	5.826027313309308	-4.312090883128515	-610.8730914455865	-56.03762825421295	-24.26691003069352	0.7987484572846516	0.7657552868874369	-0.2761554701422235	-1.904173004762078	0.6053962608221847	-0.3519145244904969	1.929186186240582	-1.380272523590263	-1.380272523571598	-0.08995560281770751	0.01848694673532627	-0.2645507178549065	0.5799218579114683	-3.214881317105832e-07	-8.504168510875229e-07	1.618440533172613e-06	9.546186376397106e-08	-4.017122042975306e-07	1.21797352191474e-07	-3.565745926994468e-07
0.52	-0.5003520524646061	-0.0789084114914848	0.7388779579469678	1.388481118692724	-0.3092921597121733	-0.01600448341634355	-0.348566618156492	0.7762891907827398	0.7762891907827548	-0.1710032106945421	0.1742564321908902	0.06001419749840835	-0.04502963257134846	-0.8231770124008525	-0.2470492042095743	-0.5543427093172817	2.53605267155866	-0.007558759234254636	0.6609445304028106	-0.5786012145679268	1.880199696718875	1.880199696719045	-0.01174619488797038	0.0004372539907339223	0.2724411926979169	0.02428971447190639	-0.2846087785028518	0.022632729685597	-0.02009125892815481	-0.1932174789127692	0.1163597927669875	0.04555171090603162	0.2470611651697916	-1.554313664078779	-21.81089553440733	5.701915036453541	-4.179895838166854	-616.1109277230368	-55.63206467396214	-23.12857853722364	0.8410913705116125	0.7743307989476158	-0.2094512062767326	-2.068545984337349	0.6381968881968155	-0.4296982863241761	1.990297679655371	-1.520476609285291	-1.520476609285318	0.01379507132573336	0.001055025759499554	-0.2849988299515756	0.6169588244807505	-2.967176095272018e-07	-7.74101061254695e-07	1.524933461794361e-06	8.576275800671988e-08	-3.636232501942182e-07	1.529459218364422e-07	-3.346819173109371e-07
0.53	-0.5085400705206568	-0.08133999144779629	0.733325251842756	1.413733982464282	-0.3093373764825567	-0.009416533650265535	-0.3542534053422367	0.7950123442923138	0.7950123442923158	-0.1711228403308462	0.1742613944965758	0.0627233866251562	-0.0447575791402931	-0.8143241941641942	-0.2392555518687033	-0.5560820804377334	2.514198196912822	-0.001510535221916942	0.6565685734444944	-0.5587124125899958	1.864182132161247	1.864182132161185	-0.01217916025505634	0.0005553722050030117	0.2693404752001906	0.03009328521429659	-0.2934570127677383	0.02292370679442472	-0.0200938542922579	-0.1943769798027983	0.1155882663082676	0.04576268476917521	0.2537071367856801	-2.089113635953258	-21.70596770235866	5.567633450653695	-4.011278962534961	-621.2707120720287	-55.14119736857824	-21.98934237587982	0.9227002575638208	0.7835838629378253	-0.1387841252007075	-2.292226287875892	0.5841302212136872	-0.4533630557906357	1.99474295555529	-1.679662697700298	-1.679662697735144	-0.07183042489751192	0.01688844068549569	-0.3310325377850353	0.5578471442697801	-2.719229443598477e-07	-7.008129542042162e-07	1.429222758608803e-06	7.634555662607446e-08	-3.27316236028971e-07	1.79388839261579e-07	-3.12448299821089e-07
